<svg width="276" height="30" viewBox="0 0 276 30" fill="none" xmlns="http://www.w3.org/2000/svg">
<path d="M127.528 23.8798C124.068 20.1771 120.627 16.5227 117.209 12.8171C117.346 12.6119 117.479 12.4065 117.62 12.2063C118.58 10.8364 119.543 9.46763 120.504 8.09821C120.575 7.9968 120.653 7.8983 120.71 7.78898C120.802 7.60958 120.936 7.54972 121.139 7.55105C122.272 7.55856 123.406 7.55107 124.54 7.5517C127.427 7.55327 130.314 7.55631 133.201 7.55904C133.44 7.55926 133.68 7.57451 133.918 7.55866C134.089 7.54726 134.199 7.59799 134.295 7.74069C134.552 8.12273 134.821 8.49608 135.086 8.87312C135.863 9.98254 136.641 11.0918 137.417 12.2018C137.548 12.3898 137.701 12.564 137.818 12.7934C134.404 16.4842 130.984 20.1761 127.528 23.8798ZM131.453 13.2602C131.362 13.2191 131.29 13.2295 131.22 13.2295C128.706 13.2312 126.192 13.2337 123.678 13.2366C123.671 13.2366 123.661 13.2428 123.655 13.2487C123.65 13.2543 123.648 13.2635 123.639 13.282C123.686 13.3861 123.739 13.4966 123.786 13.6092C124.186 14.554 124.583 15.4999 124.984 16.444C125.799 18.3648 126.617 20.2847 127.435 22.205C127.455 22.2521 127.464 22.311 127.565 22.2968C128.88 19.3088 130.136 16.2811 131.453 13.2602ZM118.964 13.2411C121.185 15.6351 123.361 17.9816 125.537 20.3281C125.36 19.71 125.093 19.1347 124.851 18.55C124.604 17.9535 124.336 17.3656 124.081 16.7722C123.83 16.1869 123.586 15.5986 123.335 15.0131C123.082 14.4211 122.825 13.8309 122.57 13.2412C121.377 13.2411 120.202 13.2411 118.964 13.2411ZM129.455 20.3418C129.507 20.355 129.527 20.3366 129.545 20.3174C131.696 17.9813 133.847 15.6451 135.998 13.3084C136.003 13.3032 136.003 13.2917 136.002 13.2838C136 13.2755 135.994 13.268 135.99 13.2601C135.57 13.207 132.719 13.2148 132.499 13.2697C132.416 13.4273 129.603 19.9608 129.455 20.3418ZM130.924 12.2023C130.357 11.5914 129.799 10.9936 129.228 10.4068C128.657 9.81902 128.105 9.21206 127.525 8.63699C127.233 8.8771 124.295 12.0058 124.175 12.1999C124.377 12.2243 130.758 12.2315 130.924 12.2023ZM123.178 11.7597C123.212 11.7512 123.235 11.7527 123.245 11.7421C124.233 10.7027 125.22 9.66235 126.207 8.6217C126.212 8.61639 126.213 8.60552 126.213 8.59757C126.212 8.58911 126.207 8.58104 126.204 8.57281C125.923 8.53062 122.076 8.54215 121.845 8.58957C122.291 9.64921 122.709 10.7167 123.178 11.7597ZM133.203 8.55237C131.735 8.54741 130.291 8.54725 128.777 8.55708C129.851 9.63293 130.82 10.7128 131.843 11.7513C131.962 11.5599 133.151 8.76834 133.203 8.55237ZM132.726 12.2112C133.828 12.2184 134.888 12.2255 135.948 12.2316C136.018 12.2321 136.088 12.225 136.158 12.2203C136.166 12.2198 136.176 12.2144 136.181 12.2082C136.186 12.2019 136.187 12.1919 136.197 12.1631C135.488 11.1388 134.772 10.1038 134.042 9.04933C133.589 10.106 133.154 11.1339 132.726 12.2112ZM122.329 12.2023C122.248 12.0143 122.181 11.8623 122.116 11.7089C121.779 10.9019 121.442 10.0946 121.105 9.28731C121.079 9.22527 121.061 9.15703 120.986 9.12161C120.265 10.1467 119.551 11.1622 118.82 12.2023C119.994 12.2023 121.14 12.2023 122.329 12.2023Z" fill="#CA4449"/>
<path d="M142.107 14.6939C142.107 22.8091 135.528 29.3878 127.413 29.3878C119.297 29.3878 112.719 22.8091 112.719 14.6939C112.719 6.57867 119.297 0 127.413 0C135.528 0 142.107 6.57867 142.107 14.6939ZM114.188 14.6939C114.188 21.9976 120.109 27.9184 127.413 27.9184C134.716 27.9184 140.637 21.9976 140.637 14.6939C140.637 7.39019 134.716 1.46939 127.413 1.46939C120.109 1.46939 114.188 7.39019 114.188 14.6939Z" fill="#CA4449"/>
<path d="M52.7797 1.20581L59.219 22.2952H59.4581L65.8974 1.20581H73.6864L63.9712 29.9999H54.7059L44.9907 1.20581H52.7797Z" fill="#392D5D"/>
<path d="M25.7923 29.9999H18.3126L28.0278 1.20581H37.2931L47.0083 29.9999H39.5286L32.7659 8.46057H32.5409L25.7923 29.9999ZM24.7941 18.6678H40.4284V23.9542H24.7941V18.6678Z" fill="#392D5D"/>
<path d="M6.10352e-05 29.9999V1.20581H19.6554V6.85777H6.95957V12.7628H18.4041V18.4288H6.95957V29.9999H6.10352e-05Z" fill="#392D5D"/>
<path d="M247.369 1.20581H255.144L261.232 13.2549H261.485L267.573 1.20581H275.348L264.817 20.3831V29.9999H257.9V20.3831L247.369 1.20581Z" fill="#392D5D"/>
<path d="M221.067 6.85777V1.20581H245.404V6.85777H236.673V29.9999H229.812V6.85777H221.067Z" fill="#392D5D"/>
<path d="M202.986 29.9999V1.20581H209.946V24.3479H221.925V29.9999H202.986Z" fill="#392D5D"/>
<path d="M178.67 29.9999H171.191L180.906 1.20581H190.171L199.886 29.9999H192.406L185.644 8.46057H185.419L178.67 29.9999ZM177.672 18.6678H193.306V23.9542H177.672V18.6678Z" fill="#392D5D"/>
<path d="M144.484 1.20581H152.259L158.347 13.2549H158.6L164.688 1.20581H172.463L161.932 20.3831V29.9999H155.015V20.3831L144.484 1.20581Z" fill="#392D5D"/>
<path d="M90.8164 29.9999V1.20581H97.7759V24.3479H109.755V29.9999H90.8164Z" fill="#392D5D"/>
</svg>
