<svg width="30" height="30" viewBox="0 0 30 30" fill="none" xmlns="http://www.w3.org/2000/svg">
<g clip-path="url(#clip0_4_8)">
<path d="M19.1909 20.8008H22.3407C22.4165 20.8008 22.4891 20.7707 22.5427 20.7172C22.5963 20.6636 22.6264 20.5909 22.6264 20.5151V17.7256C22.6264 17.6498 22.5963 17.5771 22.5427 17.5235C22.4891 17.47 22.4165 17.4399 22.3407 17.4399H7.65925C7.58348 17.4399 7.51081 17.47 7.45723 17.5235C7.40365 17.5771 7.37355 17.6498 7.37355 17.7256V20.5151C7.37355 20.5526 7.38094 20.5898 7.3953 20.6245C7.40966 20.6591 7.4307 20.6906 7.45723 20.7172C7.48376 20.7437 7.51526 20.7647 7.54992 20.7791C7.58458 20.7934 7.62173 20.8008 7.65925 20.8008H17.4917M12.8083 10.0748L12.0401 10.3818C11.8117 10.473 11.722 10.749 11.8532 10.9571L12.7033 12.3062C12.7382 12.3615 12.7587 12.4247 12.7631 12.49L12.8682 14.0811C12.8845 14.3265 13.1193 14.4971 13.3577 14.4367L14.9034 14.045C14.9669 14.029 15.0333 14.029 15.0968 14.045L16.6426 14.4367C16.881 14.4971 17.1158 14.3265 17.132 14.0811L17.2372 12.49C17.2415 12.4247 17.262 12.3615 17.2969 12.3062L18.1471 10.9571C18.2782 10.749 18.1885 10.473 17.9601 10.3818L16.4794 9.79009C16.4186 9.76581 16.3649 9.72674 16.323 9.67642L15.3027 8.45099C15.1453 8.26196 14.8551 8.26196 14.6978 8.45099L14.2032 9.04495" stroke="#5F5F5F" stroke-width="2" stroke-miterlimit="10" stroke-linecap="round" stroke-linejoin="round"/>
<path d="M3.331 18.5076C2.71699 19.4795 1.86398 20.2853 0.853652 20.8412C0.599941 20.9807 0.439453 21.2443 0.439453 21.5339V23.2127C0.439453 23.6472 0.79166 23.9995 1.22619 23.9995H28.7739C29.2083 23.9995 29.5606 23.6473 29.5606 23.2127V21.5339C29.5606 21.2443 29.4001 20.9807 29.1464 20.8412C27.0461 19.6857 25.6226 17.4519 25.6226 14.8854C25.6226 12.3188 27.0461 10.0851 29.1464 8.92963C29.4001 8.79006 29.5606 8.52645 29.5606 8.23688V6.78721C29.5606 6.35274 29.2084 6.00047 28.7739 6.00047H1.22619C0.791719 6.00047 0.439453 6.35268 0.439453 6.78721V8.23688C0.439453 8.52645 0.599941 8.79006 0.853652 8.92963C2.954 10.0851 4.37748 12.3189 4.37748 14.8854C4.37748 15.6015 4.26639 16.2917 4.06096 16.9398" stroke="#5F5F5F" stroke-width="2" stroke-miterlimit="10" stroke-linecap="round" stroke-linejoin="round"/>
</g>
<defs>
<clipPath id="clip0_4_8">
<rect width="30" height="30" fill="white"/>
</clipPath>
</defs>
</svg>
