<svg width="18" height="18" viewBox="0 0 18 18" fill="none" xmlns="http://www.w3.org/2000/svg">
<path d="M17.3074 9.36422L10.324 2.38079C10.1938 2.24973 10.0389 2.14582 9.86819 2.07509C9.69752 2.00436 9.51451 1.96822 9.32977 1.96876H2.81251C2.58873 1.96876 2.37412 2.05765 2.21588 2.21588C2.05765 2.37412 1.96876 2.58873 1.96876 2.81251V9.32977C1.96822 9.51451 2.00436 9.69752 2.07509 9.86819C2.14582 10.0389 2.24973 10.1938 2.38079 10.324L9.36422 17.3074C9.62793 17.5711 9.98556 17.7192 10.3584 17.7192C10.7313 17.7192 11.089 17.5711 11.3527 17.3074L17.3074 11.3527C17.5711 11.089 17.7192 10.7313 17.7192 10.3584C17.7192 9.98556 17.5711 9.62793 17.3074 9.36422ZM10.3584 15.9152L3.65626 9.21094V3.65626H9.21094L15.9131 10.3584L10.3584 15.9152ZM7.31251 6.18751C7.31251 6.41001 7.24653 6.62752 7.12291 6.81252C6.99929 6.99753 6.82359 7.14172 6.61802 7.22687C6.41246 7.31202 6.18626 7.3343 5.96803 7.29089C5.7498 7.24748 5.54935 7.14034 5.39201 6.983C5.23468 6.82567 5.12753 6.62521 5.08412 6.40698C5.04071 6.18875 5.06299 5.96255 5.14814 5.75699C5.23329 5.55142 5.37748 5.37572 5.56249 5.2521C5.74749 5.12849 5.965 5.06251 6.18751 5.06251C6.48587 5.06251 6.77202 5.18103 6.983 5.39201C7.19398 5.60299 7.31251 5.88914 7.31251 6.18751Z" fill="#303030"/>
</svg>
