<svg width="30" height="30" viewBox="0 0 30 30" fill="none" xmlns="http://www.w3.org/2000/svg">
<g clip-path="url(#clip0_10_69)">
<path d="M6.06285 26.1195C7.66779 26.1195 8.96886 24.8184 8.96886 23.2135C8.96886 21.6085 7.66779 20.3074 6.06285 20.3074C4.4579 20.3074 3.15683 21.6085 3.15683 23.2135C3.15683 24.8184 4.4579 26.1195 6.06285 26.1195Z" stroke="#5F5F5F" stroke-width="2" stroke-miterlimit="10" stroke-linecap="round" stroke-linejoin="round"/>
<path d="M6.06285 26.1195C7.66779 26.1195 8.96886 24.8184 8.96886 23.2135C8.96886 21.6085 7.66779 20.3074 6.06285 20.3074C4.4579 20.3074 3.15683 21.6085 3.15683 23.2135C3.15683 24.8184 4.4579 26.1195 6.06285 26.1195Z" stroke="#5F5F5F" stroke-width="2" stroke-miterlimit="10" stroke-linecap="round" stroke-linejoin="round"/>
<path d="M18.1331 3.88052H1.26809C0.810472 3.88052 0.439453 4.25154 0.439453 4.70916V21.5742C0.439453 22.0318 0.810472 22.4028 1.26809 22.4028H3.27231C3.62335 21.1925 4.7394 20.3075 6.06287 20.3075C7.38634 20.3075 8.50244 21.1926 8.85342 22.4028H18.9618V4.70916C18.9618 4.25154 18.5907 3.88052 18.1331 3.88052Z" stroke="#5F5F5F" stroke-width="2" stroke-miterlimit="10" stroke-linecap="round" stroke-linejoin="round"/>
<path d="M24.6358 26.1195C26.2407 26.1195 27.5418 24.8184 27.5418 23.2135C27.5418 21.6085 26.2407 20.3074 24.6358 20.3074C23.0308 20.3074 21.7298 21.6085 21.7298 23.2135C21.7298 24.8184 23.0308 26.1195 24.6358 26.1195Z" stroke="#5F5F5F" stroke-width="2" stroke-miterlimit="10" stroke-linecap="round" stroke-linejoin="round"/>
<path d="M12.3853 18.2484H18.9618V4.70916C18.9618 4.25154 18.5907 3.88052 18.1331 3.88052H1.26809C0.810472 3.88052 0.439453 4.25154 0.439453 4.70916V18.2484H10.3345M21.1695 10.4955H18.9618V22.4028H21.8452C22.1963 21.1925 23.3123 20.3074 24.6358 20.3074C25.9593 20.3074 27.0754 21.1925 27.4264 22.4028H28.9364C29.2812 22.4028 29.5605 22.1233 29.5605 21.7787V18.1492C29.5605 17.9506 29.5185 17.7544 29.4371 17.5733C29.3557 17.3922 29.2369 17.2304 29.0884 17.0986L27.7654 15.9238C27.6316 15.8049 27.5217 15.6616 27.4417 15.5015L25.9005 11.1661C25.7997 10.9646 25.6449 10.7951 25.4532 10.6767C25.2616 10.5583 25.0408 10.4955 24.8155 10.4955H20.2203" stroke="#5F5F5F" stroke-width="2" stroke-miterlimit="10" stroke-linecap="round" stroke-linejoin="round"/>
</g>
<defs>
<clipPath id="clip0_10_69">
<rect width="30" height="30" fill="white"/>
</clipPath>
</defs>
</svg>
