<svg width="32" height="32" viewBox="0 0 32 32" fill="none" xmlns="http://www.w3.org/2000/svg">
<path d="M16.4751 8.79688C15.2069 8.79008 14.372 8.26275 13.9699 7.57004C13.7863 7.25466 13.6897 6.89618 13.6901 6.53125C13.6907 6.04697 13.8623 5.5627 14.205 5.16678C14.6632 4.63662 15.4284 4.26562 16.5 4.26562C17.6362 4.26562 18.4275 4.68137 18.8739 5.26137C19.1655 5.63859 19.3106 6.08492 19.31 6.53125C19.31 6.85637 19.2324 7.18148 19.0777 7.47998C18.696 8.21631 17.8452 8.78951 16.525 8.79688" stroke="#5F5F5F" stroke-width="2" stroke-miterlimit="10" stroke-linecap="round" stroke-linejoin="round"/>
<path d="M13.9699 7.57005C13.9699 7.57005 10.772 9.44938 10.7629 9.45454C10.7725 9.44882 10.7606 9.45561 10.7165 9.48224L10.6938 9.49526C10.7085 9.48677 10.6966 9.49356 10.6677 9.51056C10.6575 9.51622 10.6468 9.52302 10.6349 9.52987C10.5601 9.57343 10.4837 9.61874 10.4837 9.61874C10.0073 9.89911 9.41881 10.0096 8.802 9.86853C7.65786 9.60628 7.01046 8.13249 6.89151 6.52956C6.73178 4.38061 7.52135 2.00001 9.33725 2.00001C9.85891 2.00001 10.3398 2.17622 10.7227 2.47239C10.7227 2.47239 10.8275 2.55339 10.8354 2.55962L10.8365 2.56081C10.8496 2.57038 10.8654 2.58284 10.8676 2.58454L10.9538 2.65138C10.9549 2.65194 10.956 2.65308 10.9566 2.65308V2.65364L14.2049 5.16679" stroke="#5F5F5F" stroke-width="2" stroke-miterlimit="10" stroke-linecap="round" stroke-linejoin="round"/>
<path d="M22.4433 9.45764L22.455 9.46468" stroke="#5F5F5F" stroke-width="2" stroke-miterlimit="10" stroke-linecap="round" stroke-linejoin="round"/>
<path d="M18.8744 5.26081L22.4778 2.47239C22.8744 2.16546 23.3618 1.99926 23.8633 2.00001C25.6786 2.00001 26.4693 4.38062 26.309 6.52951C26.1906 8.13243 25.5432 9.60628 24.3991 9.86853C23.7817 10.0096 23.1938 9.89911 22.7169 9.61868L22.4846 9.48218C22.4456 9.45901 22.4371 9.45448 22.4546 9.46468C22.4506 9.46185 22.4467 9.46015 22.4433 9.45788L22.4235 9.44599H22.4229L22.4212 9.44485L22.4206 9.44423L19.0777 7.47999" stroke="#5F5F5F" stroke-width="2" stroke-miterlimit="10" stroke-linecap="round" stroke-linejoin="round"/>
<path d="M19.0777 7.47999L24.9757 15.5904L21.8809 14.7611L21.0517 17.856L16.4751 8.79689H16.525L11.9484 17.856L11.1191 14.7611L8.02435 15.5904L13.9699 7.57005" stroke="#5F5F5F" stroke-width="2" stroke-miterlimit="10" stroke-linecap="round" stroke-linejoin="round"/>
<path d="M26.3294 6.53125H28.7344C29.3603 6.53125 29.8672 7.03818 29.8672 7.66406V12.1953H22.5067" stroke="#5F5F5F" stroke-width="2" stroke-miterlimit="10" stroke-linecap="round" stroke-linejoin="round"/>
<path d="M10.5408 12.1953H2V7.66406C2 7.03818 2.50693 6.53125 3.13281 6.53125H6.87109" stroke="#5F5F5F" stroke-width="2" stroke-miterlimit="10" stroke-linecap="round" stroke-linejoin="round"/>
<path d="M28.7344 12.1953V28.7344C28.7344 29.3603 27.8876 29.8672 27.2617 29.8672H4.26562C3.63975 29.8672 3.13281 29.3603 3.13281 28.7344V12.1953" stroke="#5F5F5F" stroke-width="2" stroke-miterlimit="10" stroke-linecap="round" stroke-linejoin="round"/>
<path d="M11.4023 6.53125H13.6901" stroke="#5F5F5F" stroke-width="2" stroke-miterlimit="10" stroke-linecap="round" stroke-linejoin="round"/>
<path d="M19.3099 6.53125H21.5977" stroke="#5F5F5F" stroke-width="2" stroke-miterlimit="10" stroke-linecap="round" stroke-linejoin="round"/>
<path d="M18.1992 12.2095V29.8672" stroke="#5F5F5F" stroke-width="2" stroke-miterlimit="10" stroke-linecap="round" stroke-linejoin="round"/>
<path d="M14.8008 29.8672V12.2095" stroke="#5F5F5F" stroke-width="2" stroke-miterlimit="10" stroke-linecap="round" stroke-linejoin="round"/>
</svg>
