<svg width="32" height="30" viewBox="0 0 32 30" fill="none" xmlns="http://www.w3.org/2000/svg">
<path d="M15.557 9.97247L14.2331 5.7287C13.902 4.66739 13.0642 3.85886 11.9918 3.56583C10.9194 3.27292 9.78671 3.54286 8.96195 4.28835C8.22513 4.95433 7.83794 5.90484 7.89964 6.89612C7.9614 7.88741 8.46343 8.78249 9.27718 9.35202L10.1639 9.97253" stroke="#5F5F5F" stroke-width="2" stroke-miterlimit="10" stroke-linecap="round" stroke-linejoin="round"/>
<path d="M21.8361 9.97248L22.7228 9.35197C23.5366 8.7825 24.0387 7.88742 24.1004 6.89607C24.1621 5.90478 23.7749 4.95428 23.038 4.2883C22.2133 3.54281 21.0806 3.27281 20.0082 3.56578C18.9358 3.85881 18.0979 4.6674 17.7669 5.72865L16.4431 9.97248" stroke="#5F5F5F" stroke-width="2" stroke-miterlimit="10" stroke-linecap="round" stroke-linejoin="round"/>
<path d="M25.0945 10.0529H3.13369C2.19801 10.0529 1.43945 10.8114 1.43945 11.7472V24.8559C1.43945 25.7916 2.19795 26.5502 3.13369 26.5502H7.89326M5.89506 26.5501H28.8664C29.8021 26.5501 30.5606 25.7916 30.5606 24.8559V22.6124C30.5606 22.0591 30.1964 21.5695 29.6645 21.4168C28.3105 21.0281 27.3198 19.7805 27.3198 18.3015C27.3198 16.8226 28.3105 15.575 29.6645 15.1863C30.1964 15.0336 30.5606 14.544 30.5606 13.9906V11.7472C30.5606 10.8115 29.8021 10.0529 28.8664 10.0529H26.9496M22.6111 11.9958V12.7588M22.6111 14.9579V15.7209M22.6111 17.92V18.683M22.6111 20.8822V21.6451M22.6111 23.8443V24.6072" stroke="#5F5F5F" stroke-width="2" stroke-miterlimit="10" stroke-linecap="round" stroke-linejoin="round"/>
<path d="M14.7284 13.9491L8.70051 22.654M8.87518 16.8236C8.12336 16.8236 7.51387 16.2141 7.51387 15.4623C7.51387 14.7104 8.12336 14.1009 8.87518 14.1009C9.627 14.1009 10.2365 14.7104 10.2365 15.4623C10.2365 16.2141 9.627 16.8236 8.87518 16.8236ZM14.5537 22.5021C13.8019 22.5021 13.1924 21.8926 13.1924 21.1408C13.1924 20.389 13.8019 19.7795 14.5537 19.7795C15.3056 19.7795 15.915 20.389 15.915 21.1408C15.915 21.8926 15.3056 22.5021 14.5537 22.5021Z" stroke="#5F5F5F" stroke-width="2" stroke-miterlimit="10" stroke-linecap="round" stroke-linejoin="round"/>
</svg>
