<svg width="176" height="174" viewBox="0 0 176 174" fill="none" xmlns="http://www.w3.org/2000/svg">
<path d="M160.121 49.0996V166.349C160.121 169.398 157.65 171.869 154.604 171.869H21.3969C20.672 171.869 19.9543 171.727 19.2847 171.449C18.6151 171.172 18.0068 170.765 17.4944 170.252C16.9821 169.74 16.5758 169.131 16.2988 168.461C16.0217 167.791 15.8794 167.073 15.8799 166.349V49.0996H160.121Z" fill="#FC6559"/>
<path d="M160.121 49.0996V166.345C160.121 169.402 157.653 171.869 154.593 171.869H21.4082C18.3516 171.869 15.8799 169.398 15.8799 166.341V159.794H142.521C145.578 159.794 148.05 157.326 148.05 154.269V49.0996H160.121Z" fill="#F05543"/>
<path d="M170.265 69.6427V46.7748C170.265 43.7257 167.793 41.2578 164.748 41.2578H11.2533C8.20803 41.2578 5.73633 43.7257 5.73633 46.7748V69.6427C5.73633 72.6918 8.20803 75.1635 11.2533 75.1635H164.748C167.793 75.1635 170.265 72.6918 170.265 69.6427Z" fill="#FC6559"/>
<path d="M170.272 46.7861V69.6389C170.272 72.6955 167.804 75.1635 164.747 75.1635H11.253C8.19644 75.1635 5.72852 72.6955 5.72852 69.6389V66.8918H156.476C159.532 66.8918 162.004 64.4239 162.004 61.3672V41.2578H164.747C167.804 41.2578 170.272 43.7295 170.272 46.7861Z" fill="#F05543"/>
<path d="M73.3018 41.2578H102.698V75.1635H73.3018V41.2578Z" fill="#F9B938"/>
<path d="M73.3018 66.6504H102.698V75.1636H73.3018V66.6504Z" fill="#ECB021"/>
<path d="M73.3018 75.1602H102.698V171.896H73.3018V75.1602Z" fill="#F9B938"/>
<path d="M73.3018 159.793H102.698V171.906H73.3018V159.793Z" fill="#ECB021"/>
<path d="M113.849 64.9141L103.147 58.9971C102.864 58.8398 102.534 58.7917 102.218 58.862C101.902 58.9322 101.623 59.1159 101.434 59.3783L94.2641 69.2801C94.112 69.4927 93.9002 69.6554 93.6556 69.7475C93.4109 69.8396 93.1445 69.8571 92.8899 69.7977C92.6354 69.7383 92.4042 69.6047 92.2256 69.4138C92.047 69.2229 91.9291 68.9834 91.8867 68.7254L86.8867 39.25L107.807 34.582L115.766 63.4047C115.837 63.656 115.831 63.9227 115.75 64.171C115.669 64.4192 115.517 64.6379 115.311 64.7995C115.106 64.961 114.858 65.0581 114.598 65.0785C114.337 65.0989 114.077 65.0417 113.849 64.9141Z" fill="#F9B938"/>
<path d="M62.0308 64.8386L72.7515 58.9518C73.0347 58.7963 73.365 58.75 73.68 58.8216C73.995 58.8933 74.2729 59.0779 74.461 59.3405L81.6043 69.265C81.7562 69.4775 81.9677 69.6402 82.212 69.7326C82.4564 69.8249 82.7226 69.8427 82.9771 69.7837C83.2315 69.7248 83.4628 69.5917 83.6416 69.4013C83.8204 69.2109 83.9388 68.9717 83.9817 68.7141L89.0685 39.2537L68.1591 34.5254L60.1213 63.3254C60.051 63.576 60.0564 63.8419 60.1367 64.0895C60.217 64.3371 60.3687 64.5555 60.5727 64.7171C60.7767 64.8788 61.024 64.9766 61.2834 64.9982C61.5428 65.0198 61.8028 64.9643 62.0308 64.8386Z" fill="#F9B938"/>
<path d="M115.747 63.4155C115.821 63.6627 115.819 63.9262 115.741 64.1721C115.663 64.4179 115.513 64.6348 115.311 64.7948C115.109 64.9548 114.863 65.0506 114.606 65.0697C114.349 65.0889 114.092 65.0305 113.868 64.9023L103.129 58.9853C102.848 58.8333 102.522 58.7893 102.211 58.8616C101.9 58.9339 101.626 59.1175 101.442 59.3777L94.272 69.2947C94.1152 69.5061 93.8994 69.6664 93.6517 69.7556C93.4041 69.8447 93.1356 69.8588 92.88 69.7959C92.6245 69.733 92.3931 69.596 92.2152 69.4021C92.0372 69.2082 91.9204 68.966 91.8796 68.706L91.2116 64.7853L97.7965 55.7287C97.9801 55.4671 98.254 55.2826 98.5654 55.2109C98.8768 55.1391 99.2038 55.1851 99.4833 55.34L110.181 61.257C111.238 61.8079 112.419 60.8683 112.106 59.7702L105.321 35.1136L107.793 34.5664L115.747 63.4155ZM70.7928 55.6909L73.0645 58.8268C72.9475 58.8645 72.8682 58.8645 72.7512 58.9475L62.0116 64.8268C60.9928 65.4117 59.8154 64.4343 60.1286 63.3362L61.1475 59.6532L69.106 55.3023C69.3855 55.1474 69.7125 55.1014 70.0239 55.1731C70.3353 55.2449 70.6092 55.4293 70.7928 55.6909ZM89.0569 39.2683L83.9626 68.706C83.9231 68.9632 83.8075 69.2026 83.6306 69.3935C83.4538 69.5843 83.2238 69.7178 82.9704 69.7766C82.717 69.8355 82.4517 69.8171 82.2089 69.7238C81.966 69.6305 81.7567 69.4666 81.6079 69.2532L79.3362 66.1211C79.5892 66.0673 79.8193 65.9365 79.9949 65.7466C80.1706 65.5567 80.2832 65.3172 80.3173 65.0608L84.9399 38.3287L89.0569 39.2683Z" fill="#E5A320"/>
<path d="M98.0233 18.551C98.0233 18.551 117.872 15.6302 129.408 5.01138C129.408 5.01138 144.978 40.7812 121.748 41.9887C98.5177 43.1963 95.1592 38.4038 95.1592 38.4038L95.1894 17.8378L98.0233 18.551ZM77.9894 18.5246C77.9894 18.5246 58.1516 15.5435 46.6422 4.89062C46.6422 4.89062 30.9743 40.6189 54.1969 41.8906C77.4196 43.1661 80.7969 38.3812 80.7969 38.3812L80.8271 17.8152L77.9894 18.5246Z" fill="#F9B938"/>
<path d="M121.747 41.974C98.5022 43.1891 95.1701 38.4079 95.1701 38.4079V36.057C98.9323 37.0759 105.559 37.9362 117.083 37.3476C133.974 36.4457 130.366 17.3589 127.155 6.97021C127.94 6.34379 128.683 5.67964 129.427 5.01172C129.427 5.01172 144.989 40.7966 121.747 41.974ZM80.8267 17.8306L80.789 38.3664C80.789 38.3664 77.4154 43.1513 54.2116 41.8947C48.4871 41.5815 45.1173 39.1513 43.3135 35.7061C44.9588 36.5664 47.038 37.0759 49.5474 37.2306C72.7512 38.5249 76.1625 33.7438 76.1625 33.7438V18.1815C77.3361 18.4155 78.004 18.5362 78.004 18.5362L80.8267 17.8306Z" fill="#ECB021"/>
<path d="M80.8266 17.8197L77.9889 18.5254C77.9889 18.5254 59.9323 19.1291 48.2341 10.2008C46.5549 8.91781 45.8266 6.52536 46.7549 4.63102C47.9323 2.21593 51.3926 0.348003 61.1021 4.75178C78.0907 12.4499 80.8266 17.8197 80.8266 17.8197Z" fill="#E5A320"/>
<path d="M98.5169 19.4228L98.4943 36.4266C98.4913 37.9471 97.8846 39.4043 96.8076 40.4778C95.7307 41.5512 94.2715 42.1531 92.7509 42.1511L83.1132 42.1398C81.5791 42.1338 80.1099 41.5207 79.0266 40.4346C77.9433 39.3484 77.334 37.8776 77.332 36.3435L77.3547 19.3398C77.3577 17.8192 77.9643 16.362 79.0413 15.2886C80.1183 14.2151 81.5775 13.6132 83.0981 13.6152L92.7358 13.6266C94.2698 13.6325 95.7391 14.2456 96.8224 15.3318C97.9057 16.4179 98.515 17.8888 98.5169 19.4228Z" fill="#E5A320"/>
<path d="M95.1885 17.8391L98.0224 18.5561C98.0224 18.5561 116.079 19.2127 127.804 10.3146C129.483 9.03912 130.219 6.64667 129.298 4.74856C128.124 2.33346 124.671 0.454215 114.951 4.8278C97.9356 12.4806 95.1885 17.8391 95.1885 17.8391Z" fill="#E5A320"/>
<g opacity="0.3">
<path d="M22.7025 53.2076C22.4253 52.9466 22.2058 52.6305 22.0583 52.2795C21.9108 51.9285 21.8384 51.5505 21.8459 51.1699C21.8459 49.5887 23.1554 48.2793 24.7403 48.2793H53.2308C54.861 48.2793 56.1252 49.5887 56.1252 51.1736C56.1252 52.7585 54.861 54.068 53.2308 54.068H24.7403C24.3606 54.0662 23.9851 53.9892 23.6354 53.8416C23.2856 53.6939 22.9686 53.4784 22.7025 53.2076ZM12.3931 51.1736C12.3931 49.5887 13.7025 48.2793 15.2874 48.2793H17.2308C18.8158 48.2793 20.129 49.5887 20.129 51.1736C20.129 52.7585 18.8158 54.068 17.2308 54.068H15.2874C14.9078 54.0662 14.5323 53.9892 14.1825 53.8416C13.8328 53.6939 13.5158 53.4784 13.2497 53.2076C12.9725 52.9466 12.753 52.6305 12.6055 52.2795C12.4579 51.9285 12.3856 51.5505 12.3931 51.1699V51.1736Z" fill="white"/>
</g>
<g opacity="0.3">
<path d="M23.1476 107.484C23.4082 107.206 23.7243 106.986 24.0753 106.837C24.4263 106.689 24.8044 106.616 25.1854 106.623C26.7703 106.623 28.0797 107.933 28.0797 109.518V126.687C28.0807 127.068 28.0065 127.445 27.8614 127.796C27.7163 128.148 27.5032 128.467 27.2342 128.736C26.9652 129.005 26.6458 129.218 26.2942 129.363C25.9426 129.509 25.5657 129.583 25.1854 129.582C24.805 129.583 24.4282 129.509 24.0766 129.363C23.725 129.218 23.4055 129.005 23.1365 128.736C22.8676 128.467 22.6544 128.148 22.5093 127.796C22.3642 127.445 22.29 127.068 22.291 126.687V109.518C22.291 108.748 22.608 108.027 23.1476 107.484ZM25.1854 97.1705C26.7703 97.1705 28.0797 98.4799 28.0797 100.065V102.012C28.0797 103.597 26.7665 104.906 25.1854 104.906C24.4193 104.901 23.686 104.595 23.1442 104.053C22.6025 103.511 22.296 102.778 22.291 102.012V100.065C22.291 99.295 22.608 98.5705 23.1476 98.0271C23.4086 97.7498 23.7247 97.5304 24.0757 97.3828C24.4267 97.2353 24.8047 97.1629 25.1854 97.1705Z" fill="white"/>
</g>
<g opacity="0.3">
<path d="M80.827 120.537C82.4119 120.537 83.7213 121.85 83.7213 123.431V151.922C83.7228 152.302 83.649 152.68 83.5041 153.032C83.3592 153.384 83.1461 153.704 82.8771 153.973C82.6081 154.242 82.2885 154.456 81.9366 154.601C81.5848 154.747 81.2077 154.821 80.827 154.82C80.4466 154.821 80.0698 154.747 79.7182 154.602C79.3666 154.456 79.0471 154.243 78.7781 153.974C78.5092 153.705 78.296 153.386 78.1509 153.034C78.0058 152.683 77.9316 152.306 77.9326 151.926V123.435C77.9326 122.046 79.0572 120.537 80.827 120.537ZM80.827 111.084C82.4119 111.084 83.7213 112.397 83.7213 113.978V115.925C83.7213 117.51 82.4081 118.82 80.827 118.82C80.0609 118.815 79.3275 118.508 78.7858 117.967C78.2441 117.425 77.9376 116.692 77.9326 115.925V113.978C77.9326 112.593 79.0572 111.084 80.827 111.084Z" fill="white"/>
</g>
</svg>
