<svg width="18" height="18" viewBox="0 0 18 18" fill="none" xmlns="http://www.w3.org/2000/svg">
<path d="M17.7188 8.4375C17.7177 7.46815 17.3321 6.53882 16.6467 5.85338C15.9612 5.16794 15.0319 4.78237 14.0625 4.78125H11.2725C11.0307 4.76649 7.57409 4.5 4.27925 1.73672C4.07429 1.56465 3.82448 1.45462 3.55917 1.41958C3.29386 1.38454 3.02406 1.42593 2.78145 1.53889C2.53884 1.65185 2.3335 1.83169 2.18955 2.05729C2.0456 2.28289 1.96901 2.54489 1.96878 2.8125V14.0625C1.96709 14.3304 2.04274 14.5932 2.18667 14.8191C2.3306 15.0451 2.53668 15.2248 2.78018 15.3366C3.02265 15.451 3.29294 15.4933 3.55877 15.4582C3.8246 15.4232 4.07472 15.3124 4.27925 15.139C5.96572 13.7213 7.97215 12.7357 10.125 12.2674V14.1096C10.125 14.3411 10.1821 14.569 10.2913 14.7731C10.4004 14.9772 10.5583 15.1512 10.7508 15.2796C10.782 15.3006 10.8147 15.3194 10.8485 15.3359L11.8639 15.8323C12.0515 15.9446 12.2628 16.0116 12.4809 16.028C12.699 16.0444 12.9179 16.0096 13.1203 15.9266C13.3226 15.8435 13.5028 15.7144 13.6464 15.5494C13.7901 15.3845 13.8933 15.1884 13.9479 14.9766L14.7277 12.0361C15.5679 11.8797 16.3269 11.4343 16.8732 10.777C17.4195 10.1198 17.7186 9.29214 17.7188 8.4375ZM3.65628 13.474V3.40313C6.19948 5.3768 8.73073 6.08204 10.125 6.33235V10.5469C8.73073 10.7944 6.19948 11.4996 3.65628 13.474ZM12.4024 14.2172L11.8125 13.9289V12.0938H12.9657L12.4024 14.2172ZM14.0625 10.4063H11.8125V6.46875H14.0625C14.5847 6.46875 15.0854 6.67618 15.4546 7.04539C15.8239 7.4146 16.0313 7.91536 16.0313 8.4375C16.0313 8.95965 15.8239 9.46041 15.4546 9.82962C15.0854 10.1988 14.5847 10.4063 14.0625 10.4063Z" fill="#303030"/>
</svg>
