<svg width="18" height="18" viewBox="0 0 18 18" fill="none" xmlns="http://www.w3.org/2000/svg">
<g clip-path="url(#clip0_4700_24488)">
<path d="M18 9.56241C18 9.78619 17.9111 10.0008 17.7529 10.159C17.5947 10.3173 17.3801 10.4062 17.1563 10.4062H16.5938V10.9687C16.5938 11.1924 16.5049 11.407 16.3467 11.5653C16.1884 11.7235 15.9738 11.8124 15.75 11.8124C15.5263 11.8124 15.3117 11.7235 15.1534 11.5653C14.9952 11.407 14.9063 11.1924 14.9063 10.9687V10.4062H14.3438C14.12 10.4062 13.9054 10.3173 13.7472 10.159C13.5889 10.0008 13.5 9.78619 13.5 9.56241C13.5 9.33864 13.5889 9.12403 13.7472 8.96579C13.9054 8.80756 14.12 8.71866 14.3438 8.71866H14.9063V8.15616C14.9063 7.93239 14.9952 7.71778 15.1534 7.55954C15.3117 7.40131 15.5263 7.31241 15.75 7.31241C15.9738 7.31241 16.1884 7.40131 16.3467 7.55954C16.5049 7.71778 16.5938 7.93239 16.5938 8.15616V8.71866H17.1563C17.3801 8.71866 17.5947 8.80756 17.7529 8.96579C17.9111 9.12403 18 9.33864 18 9.56241ZM14.1462 13.5196C14.2902 13.691 14.3602 13.9125 14.3408 14.1355C14.3214 14.3585 14.2142 14.5646 14.0429 14.7086C13.8715 14.8525 13.6499 14.9225 13.427 14.9032C13.204 14.8838 12.9978 14.7766 12.8539 14.6052C11.8913 13.4591 10.1954 12.0937 7.59379 12.0937C5.56246 12.0937 3.69426 12.9852 2.33371 14.6052C2.18975 14.7766 1.9836 14.8838 1.76063 14.9032C1.53765 14.9225 1.3161 14.8525 1.14473 14.7086C0.973352 14.5646 0.866185 14.3585 0.846801 14.1355C0.827417 13.9125 0.897405 13.691 1.04137 13.5196C1.95805 12.4125 3.13407 11.549 4.46488 11.0059C3.63733 10.3553 3.03317 9.46289 2.7365 8.45287C2.43982 7.44285 2.46538 6.36547 2.80961 5.37066C3.15385 4.37584 3.79964 3.51308 4.65712 2.90243C5.51459 2.29178 6.5411 1.96362 7.59379 1.96362C8.64648 1.96362 9.67299 2.29178 10.5305 2.90243C11.3879 3.51308 12.0337 4.37584 12.378 5.37066C12.7222 6.36547 12.7478 7.44285 12.4511 8.45287C12.1544 9.46289 11.5503 10.3553 10.7227 11.0059C12.0536 11.5488 13.2297 12.4123 14.1462 13.5196ZM7.59379 10.4062C8.2613 10.4062 8.91382 10.2082 9.46884 9.83737C10.0239 9.46652 10.4564 8.93942 10.7119 8.32272C10.9673 7.70602 11.0342 7.02742 10.9039 6.37273C10.7737 5.71805 10.4523 5.11668 9.98028 4.64468C9.50827 4.17268 8.90691 3.85124 8.25222 3.72101C7.59753 3.59079 6.91893 3.65762 6.30223 3.91307C5.68553 4.16852 5.15843 4.6011 4.78758 5.15611C4.41673 5.71113 4.21879 6.36365 4.21879 7.03116C4.21972 7.92598 4.5756 8.78389 5.20833 9.41662C5.84107 10.0494 6.69897 10.4052 7.59379 10.4062Z" fill="#303030"/>
</g>
<defs>
<clipPath id="clip0_4700_24488">
<rect width="18" height="18" fill="white"/>
</clipPath>
</defs>
</svg>
