<svg width="20" height="20" viewBox="0 0 20 20" fill="none" xmlns="http://www.w3.org/2000/svg">
<path d="M5 6.25C5 5.56 5.56 5 6.25 5H8.25C8.44891 5 8.63968 4.92098 8.78033 4.78033C8.92098 4.63968 9 4.44891 9 4.25C9 4.05109 8.92098 3.86032 8.78033 3.71967C8.63968 3.57902 8.44891 3.5 8.25 3.5H6.25C5.52065 3.5 4.82118 3.78973 4.30546 4.30546C3.78973 4.82118 3.5 5.52065 3.5 6.25V8.25C3.5 8.44891 3.57902 8.63968 3.71967 8.78033C3.86032 8.92098 4.05109 9 4.25 9C4.44891 9 4.63968 8.92098 4.78033 8.78033C4.92098 8.63968 5 8.44891 5 8.25V6.25Z" fill="#8C9196"/>
<path d="M13.75 5C14.44 5 15 5.56 15 6.25V8.25C15 8.44891 15.079 8.63968 15.2197 8.78033C15.3603 8.92098 15.5511 9 15.75 9C15.9489 9 16.1397 8.92098 16.2803 8.78033C16.421 8.63968 16.5 8.44891 16.5 8.25V6.25C16.5 5.52065 16.2103 4.82118 15.6945 4.30546C15.1788 3.78973 14.4793 3.5 13.75 3.5H11.75C11.5511 3.5 11.3603 3.57902 11.2197 3.71967C11.079 3.86032 11 4.05109 11 4.25C11 4.44891 11.079 4.63968 11.2197 4.78033C11.3603 4.92098 11.5511 5 11.75 5H13.75Z" fill="#8C9196"/>
<path d="M13.75 15C14.44 15 15 14.44 15 13.75V11.75C15 11.5511 15.079 11.3603 15.2197 11.2197C15.3603 11.079 15.5511 11 15.75 11C15.9489 11 16.1397 11.079 16.2803 11.2197C16.421 11.3603 16.5 11.5511 16.5 11.75V13.75C16.5 14.4793 16.2103 15.1788 15.6945 15.6945C15.1788 16.2103 14.4793 16.5 13.75 16.5H11.75C11.5511 16.5 11.3603 16.421 11.2197 16.2803C11.079 16.1397 11 15.9489 11 15.75C11 15.5511 11.079 15.3603 11.2197 15.2197C11.3603 15.079 11.5511 15 11.75 15H13.75Z" fill="#8C9196"/>
<path d="M6.25 15C5.56 15 5 14.44 5 13.75V11.75C5 11.5511 4.92098 11.3603 4.78033 11.2197C4.63968 11.079 4.44891 11 4.25 11C4.05109 11 3.86032 11.079 3.71967 11.2197C3.57902 11.3603 3.5 11.5511 3.5 11.75V13.75C3.5 14.4793 3.78973 15.1788 4.30546 15.6945C4.82118 16.2103 5.52065 16.5 6.25 16.5H8.25C8.44891 16.5 8.63968 16.421 8.78033 16.2803C8.92098 16.1397 9 15.9489 9 15.75C9 15.5511 8.92098 15.3603 8.78033 15.2197C8.63968 15.079 8.44891 15 8.25 15H6.25Z" fill="#8C9196"/>
</svg>
